<svg xmlns="http://www.w3.org/2000/svg" width="60" height="84" viewBox="0 0 60 84">
  <g id="Grupo_234" data-name="Grupo 234" transform="translate(-0.004)">
    <g id="Trazado_477" data-name="Trazado 477" transform="translate(3.004 6)" fill="none">
      <path d="M0,0H55V67H0Z" stroke="none"/>
      <path d="M 3 3 L 3 64 L 52 64 L 52 3 L 3 3 M 0 0 L 55 0 L 55 67 L 0 67 L 0 0 Z" stroke="none" fill="#337ccf"/>
    </g>
    <g id="Trazado_476" data-name="Trazado 476" transform="translate(0.004)" fill="none">
      <path d="M3,0H57a3,3,0,0,1,3,3V4a3,3,0,0,1-3,3H3A3,3,0,0,1,0,4V3A3,3,0,0,1,3,0Z" stroke="none"/>
      <path d="M 3 3 L 3 4 L 57 3.999844551086426 L 57 3 L 3 3 M 3 0 L 57 0 C 58.65685653686523 0 60 1.343144416809082 60 3 L 60 4 C 60 5.656855583190918 58.65685653686523 7 57 7 L 3 7 C 1.343143463134766 7 0 5.656855583190918 0 4 L 0 3 C 0 1.343144416809082 1.343143463134766 0 3 0 Z" stroke="none" fill="#337ccf"/>
    </g>
    <text id="_E_F_P" data-name="   E
F    P" transform="translate(16.004 25)" fill="#337ccf" font-size="12" font-family="OpenSans-Bold, Open Sans" font-weight="700"><tspan x="0" y="0" xml:space="preserve">   </tspan><tspan y="0" font-size="17">E</tspan><tspan x="0" y="15" xml:space="preserve">F    P</tspan></text>
    <text id="T_O_Z" data-name="T   O   Z" transform="translate(16.004 47)" fill="#337ccf" font-size="8" font-family="OpenSans-Bold, Open Sans" font-weight="700"><tspan x="0" y="9" xml:space="preserve">T   O   Z</tspan></text>
    <line id="Línea_5" data-name="Línea 5" y2="12" transform="translate(31.004 72)" fill="none" stroke="#337ccf" stroke-width="3"/>
  </g>
</svg>
