<svg id="Grupo_61" data-name="Grupo 61" xmlns="http://www.w3.org/2000/svg" width="104.247" height="64.699" viewBox="0 0 104.247 64.699">
  <g id="Grupo_57" data-name="Grupo 57" transform="translate(60.516 0)">
    <g id="Grupo_56" data-name="Grupo 56" transform="translate(0)">
      <path id="Trazado_19" data-name="Trazado 19" d="M-19.123-.228c2.566,0,10.588-.463,14.455,2.393C.377,5.972,2.655,8.324,2.764,16.333c-.521,3.989-5.335,5.509-5.335,5.509H-36.056S-47.874,16.284-34.847,2.9C-29.725-1.091-22.184-.228-19.123-.228Z" transform="translate(40.968 25.166)" fill="#337ccf"/>
      <circle id="Elipse_11" data-name="Elipse 11" cx="11.312" cy="11.312" r="11.312" transform="translate(10.533)" fill="#337ccf"/>
    </g>
  </g>
  <g id="Grupo_203" data-name="Grupo 203" transform="translate(0 18.601)">
    <path id="Trazado_20" data-name="Trazado 20" d="M-19.123-.228c2.566,0,10.588-.463,14.455,2.393C.377,5.972,2.655,8.324,2.764,16.333c-.521,3.989-5.335,5.509-5.335,5.509H-36.056S-47.874,16.284-34.847,2.9C-29.725-1.091-22.184-.228-19.123-.228Z" transform="translate(101.483 6.565)" fill="#337ccf"/>
    <path id="Icon_awesome-hands" data-name="Icon awesome-hands" d="M40.976,0a5.117,5.117,0,0,0-5.122,5.122V28.875L21.48,46.13a2.571,2.571,0,0,1-3.777.176l-2.049-2.049a2.559,2.559,0,0,1-.24-3.345l6.1-8.131a5.122,5.122,0,1,0-8.2-6.146L4.1,38.927A20.52,20.52,0,0,0,0,51.22V69.147a2.569,2.569,0,0,0,2.561,2.561h21.08a2.522,2.522,0,0,0,2.449-1.857,9.554,9.554,0,0,1,1.665-3.473l16.663-21.5a7.691,7.691,0,0,0,1.681-4.8V5.122A5.116,5.116,0,0,0,40.976,0Z" transform="translate(71.708 0) rotate(90)" fill="#337ccf"/>
  </g>
</svg>
